<svg width="96" height="96" viewBox="0 0 96 96" fill="none" xmlns="http://www.w3.org/2000/svg" role="img" aria-labelledby="title desc">
  <title id="title">꼬꼬회독 로고</title>
  <desc id="desc">작은 꼬꼬 얼굴과 회독 카드를 결합한 브랜드 심볼</desc>
  <rect width="96" height="96" rx="22" fill="#176F66"/>
  <path d="M50 20.5C66.3 20.5 78 34 78 51.5C78 69.7 65.4 80.5 48 80.5C30.6 80.5 18 69.7 18 51.5C18 34 31.1 20.5 50 20.5Z" fill="#FFF0BF"/>
  <path d="M45.6 23.3C42.6 16.1 47.9 10.9 54.4 14.3C56.6 7.4 65.5 7.4 68 14.4C74.7 12 79.9 18.7 75.4 24.8C68.1 20.3 58.4 18.4 45.6 23.3Z" fill="#E6462E"/>
  <circle cx="38" cy="47" r="10.5" fill="#6B3417"/>
  <circle cx="60" cy="47" r="10.5" fill="#6B3417"/>
  <circle cx="34.5" cy="42.5" r="3.5" fill="#FAFBF8"/>
  <circle cx="56.5" cy="42.5" r="3.5" fill="#FAFBF8"/>
  <circle cx="41.5" cy="51.5" r="2" fill="#FAFBF8" fill-opacity=".86"/>
  <circle cx="63.5" cy="51.5" r="2" fill="#FAFBF8" fill-opacity=".86"/>
  <path d="M49 53L62 58.5L49 66L36 58.5L49 53Z" fill="#F3A524"/>
  <path d="M48 63C52 66.5 57.3 66.5 61 63" stroke="#B97918" stroke-width="3" stroke-linecap="round"/>
  <path d="M27 33C31.2 30.1 35.7 30.1 40 33" stroke="#8F4D24" stroke-width="4" stroke-linecap="round"/>
  <path d="M58 33C62.2 30.1 66.7 30.1 71 33" stroke="#8F4D24" stroke-width="4" stroke-linecap="round"/>
  <rect x="20" y="64" width="28" height="20" rx="6" fill="#FAFBF8"/>
  <path d="M27 70H39" stroke="#176F66" stroke-width="3" stroke-linecap="round"/>
  <path d="M27 77H35" stroke="#C8D3CD" stroke-width="3" stroke-linecap="round"/>
  <path d="M70 63.2C67.1 69 61.1 73 54.2 73H49" stroke="#FAFBF8" stroke-width="4" stroke-linecap="round"/>
  <path d="M51.5 65.5L45 73L52.7 79" stroke="#FAFBF8" stroke-width="4" stroke-linecap="round" stroke-linejoin="round"/>
  <path d="M69 28L61 45H68.5L64 58L79 37H71.3L69 28Z" fill="#F3C751" stroke="#1C211F" stroke-opacity=".12" stroke-width="1.5" stroke-linejoin="round"/>
</svg>
